<?xml version="1.0" encoding="utf-8" ?>
<svg xmlns="http://www.w3.org/2000/svg" xmlns:xlink="http://www.w3.org/1999/xlink" width="300" height="300">
	<path fill="#20CB5A" d="M196.563 44.1054C201.293 44.0657 205.791 45.2506 209.761 47.8475C213.286 50.1529 216.089 53.6872 219.076 56.6313Q230.993 68.4318 242.719 80.4222C247.925 85.6768 254.738 91.5803 259.319 97.0412C260.851 98.8665 262.12 100.944 262.603 103.3C263.232 106.368 262.255 110.177 260.522 112.75C258.553 115.673 255.725 117.645 252.261 118.306C248.123 119.096 243.713 118.814 239.52 118.802L224.644 118.814L209.478 118.834C206.316 118.837 203.015 119.002 199.876 118.617C197.06 118.271 194.441 117.606 192.076 115.967C189.962 114.502 188.235 112.598 186.399 110.815C183.166 107.674 179.981 104.55 176.856 101.295C174.933 99.2921 172.852 96.8463 170.55 95.3081L170.326 95.1615C167.857 97.0626 165.655 99.6158 163.441 101.829L149.94 115.464Q132.842 132.722 115.501 149.737C118.366 153.174 121.647 156.276 124.806 159.438L140.139 174.672C149.136 183.613 157.799 193.026 167.02 201.72C167.834 202.487 169.6 204.299 170.644 204.407C173.821 202.588 182.733 192.79 186.001 189.493C188.052 187.424 190.46 184.723 193.08 183.384C195.121 182.341 197.321 181.764 199.581 181.456C203.009 180.988 206.627 181.201 210.084 181.198L226.601 181.154C232.064 181.131 248.136 180.523 252.583 181.67C254.925 182.275 257.387 183.799 259.082 185.509C261.394 187.843 262.87 191.01 262.793 194.33C262.73 197.039 261.579 199.711 260.074 201.924C256.863 206.644 251.251 211.213 247.119 215.3C242.805 219.565 238.696 224.02 234.315 228.219C230.401 232.35 226.277 236.303 222.259 240.333C218.969 243.634 215.74 247.136 212.226 250.199C207.777 254.076 202.063 256.217 196.119 255.755C187.959 255.121 182.368 249.991 176.957 244.4C174.774 242.144 172.581 239.895 170.531 237.516C168.55 240.255 165.9 242.749 163.472 245.107C157.524 250.882 150.902 256.069 142.233 255.908C137.297 255.816 132.973 253.825 129.086 250.917C124.231 247.283 120.132 242.79 115.914 238.464C112.263 234.72 108.384 231.187 104.797 227.384C100.916 223.268 97.3647 218.856 93.405 214.805C84.0974 205.281 74.3454 196.225 64.8488 186.903C61.3402 183.459 58.1728 179.688 54.7501 176.164C51.0907 172.396 47.166 168.884 43.5266 165.094C39.6723 161.08 37.1197 155.774 37.2951 150.117C37.4232 145.988 38.4953 141.448 40.9035 138.071C45.1098 132.173 50.7926 127.612 55.9729 122.635C58.0607 120.629 60.0012 118.474 62.0549 116.434C65.7154 112.796 69.4675 109.249 73.0994 105.583C78.6632 99.9664 83.8872 94.0554 89.3202 88.3231C95.3214 81.9913 101.678 76.0359 107.833 69.8598C113.793 63.8804 119.546 57.6317 125.736 51.8906C130.632 47.3509 136.427 43.9015 143.32 44.173C153.933 44.591 157.571 50.6441 164.513 57.2034C166.447 59.0313 168.864 60.3273 170.658 62.2718Q170.976 61.8849 171.302 61.5054C173.265 59.223 175.435 57.0701 177.549 54.9278C183.061 49.3421 188.375 44.7211 196.563 44.1054ZM142.639 68.4267C139.181 70.5403 136.145 74.2351 133.281 77.097L118.853 91.5575L60.9501 149.445C63.2588 152.286 66.0676 154.539 68.6182 157.139C71.1121 159.681 73.2037 162.604 75.7376 165.107C79.4184 168.742 83.5604 171.902 87.2373 175.552C91.328 179.612 94.7211 184.269 98.7795 188.346C102.718 192.303 106.964 195.975 110.988 199.848C113.988 202.736 116.889 205.728 119.899 208.605C122.051 210.664 124.335 212.586 126.451 214.682C130.346 218.539 134.097 222.546 137.971 226.426C139.676 228.116 141.437 229.776 143.076 231.53C144.702 229.812 146.311 228.006 148.096 226.453C149.967 224.827 152.128 223.517 153.722 221.601C153.768 221.546 153.815 221.493 153.861 221.439C151.586 218.72 148.96 216.286 146.439 213.799L135.118 202.679C127.982 195.702 121.121 188.438 113.98 181.466C110.953 178.511 108.011 175.487 105.04 172.477C101.549 168.941 97.784 165.51 95.2426 161.188C92.942 157.276 91.8737 152.289 92.2803 147.785C92.634 143.866 93.9067 140.681 96.1175 137.431C100.491 131 106.697 125.86 112.219 120.428C121.277 111.516 130.12 102.364 139.097 93.3671L148.624 83.8377C150.24 82.2227 152.059 80.6268 153.506 78.8629C151.865 76.519 145.119 69.1139 142.639 68.4267ZM206.485 203.84C205.415 203.935 204.508 204.067 203.569 204.617C200.406 206.47 191.206 215.956 188.689 218.973C188.051 219.737 187.506 220.543 187.188 221.494C190.317 224.799 193.674 228.855 197.323 231.575C199.251 230.288 200.911 228.569 202.544 226.931L217.884 211.579C220.455 208.987 222.912 206.132 225.68 203.764C219.357 204.196 212.838 203.735 206.485 203.84ZM197.248 68.1482C195.46 70.0543 188.247 76.4517 187.558 78.2062C188.38 80.403 202.112 94.2772 204.258 95.2352C207.377 96.6272 212.219 96.3167 215.562 95.9729C218.782 95.438 221.695 95.0288 224.961 95.1764C222.844 92.4524 219.895 90.3597 217.457 87.9239C215.642 86.1102 213.988 84.1347 212.198 82.2949C210.412 80.4594 208.507 78.7419 206.719 76.9087C203.936 74.0553 200.801 69.9934 197.248 68.1482Z"/>
</svg>
