<?xml version="1.0" encoding="utf-8" ?>
<svg xmlns="http://www.w3.org/2000/svg" xmlns:xlink="http://www.w3.org/1999/xlink" width="500" height="500">
	<path fill="#4E9D7E" d="M89.584 176.89C89.9543 176.895 90.3897 176.877 90.748 176.973C91.3427 177.131 91.5359 177.458 91.7754 177.976C91.7148 178.84 91.4158 179.191 90.8709 179.845L90.4662 179.896C89.8637 179.632 89.6675 179.561 89.3717 178.924C89.0556 178.243 89.3233 177.527 89.584 176.89Z"/>
	<path fill="#4E9D7E" d="M425.84 241.153C426.188 241.226 426.421 241.301 426.712 241.524C427.214 241.911 427.534 242.64 427.499 243.26C427.454 244.074 427.061 244.352 426.555 244.91C426.306 244.803 426.053 244.696 425.814 244.569C425.105 244.194 424.799 243.778 424.584 243.023C424.768 242.148 425.215 241.766 425.84 241.153Z"/>
	<path fill="#488974" d="M90.6309 200.033C91.0001 200.336 91.0137 200.439 91.5067 200.483C92.2537 200.549 92.8951 200.515 93.4906 201.025L93.6447 201.466C93.1222 202.096 92.0882 202.154 91.3267 202.384C89.9999 202.783 90.6933 205.042 90.5862 206.161C90.1762 205.971 89.7202 205.859 89.2887 205.725C89.2262 203.97 89.6142 202.277 89.713 200.531L90.6309 200.033Z"/>
	<path fill="#488974" d="M89.2976 194.111C89.8813 193.866 90.1167 193.689 90.4985 193.184C90.5353 193.998 90.4489 194.267 90.9626 194.922C92.0979 195.322 94.9323 194.604 95.4698 195.577C94.6429 196.363 92.2582 196.237 91.1308 196.216C90.9037 196.212 90.6768 196.199 90.4499 196.187L90.6309 200.033L89.713 200.531C89.2492 198.414 89.2805 196.266 89.2976 194.111Z"/>
	<path fill="#4E9D7E" d="M279.843 164.882C280.341 165.052 280.87 165.219 281.309 165.514C281.914 165.921 282.451 166.552 282.521 167.305C282.608 168.24 282.077 168.787 281.472 169.383C280.462 169.315 279.744 169.25 278.906 168.646C278.675 168.246 278.453 168.016 278.453 167.537C278.452 166.381 279.107 165.698 279.843 164.882Z"/>
	<path fill="#68BF76" d="M374.622 144.357C375.308 144.514 375.948 144.813 376.453 145.313Q376.632 145.488 376.77 145.696Q376.908 145.905 376.999 146.138Q377.089 146.372 377.128 146.619Q377.166 146.866 377.151 147.116C377.083 148.098 376.524 148.504 375.828 149.068C375.086 149.079 374.397 149.063 373.797 148.561C373.371 148.205 373.171 147.796 373.161 147.243C373.135 145.908 373.739 145.258 374.622 144.357Z"/>
	<path fill="#488974" d="M89.2976 194.111C89.3516 191.667 88.9034 182.204 89.9388 180.73L90.2455 180.896C91.1773 182.992 90.5986 190.529 90.4985 193.184C90.1167 193.689 89.8813 193.866 89.2976 194.111Z"/>
	<path fill="#FEFEFE" d="M384.205 159.947C385.23 160.19 386.22 160.421 386.855 161.346C387.252 161.924 387.409 162.435 387.254 163.136C387.077 163.942 386.663 164.256 386.048 164.716C385.112 164.809 384.24 164.834 383.515 164.128C383.024 163.649 382.885 163.077 382.896 162.413C382.913 161.392 383.508 160.62 384.205 159.947Z"/>
	<path fill="#FEFEFE" d="M366.627 189.672C367.459 189.689 368.508 189.805 369.113 190.461C369.609 190.999 369.806 191.577 369.747 192.301C369.654 193.458 369.053 193.991 368.237 194.721C367.292 194.756 366.595 194.606 365.868 193.95C365.354 193.486 365.148 192.915 365.14 192.237C365.125 191.022 365.812 190.459 366.627 189.672Z"/>
	<path fill="#FEFEFE" d="M70.9028 301.973C71.4544 301.999 72.044 302.011 72.5813 302.146C73.4664 302.368 74.2385 303.122 74.628 303.927C74.9523 304.596 74.9877 305.308 74.7345 306.007C74.3633 307.033 73.6991 307.453 72.7448 307.885C71.8511 307.858 71.0447 307.733 70.3017 307.202C69.6251 306.719 69.2717 306.123 69.1848 305.285C69.0381 303.87 70.0096 302.915 70.9028 301.973Z"/>
	<path fill="#68BF76" d="M387.476 135.55C387.854 135.63 388.236 135.713 388.603 135.835C389.506 136.135 390.235 136.735 390.606 137.623C390.892 138.307 390.868 138.983 390.592 139.66C390.104 140.854 389.321 141.177 388.176 141.642C387.686 141.56 387.181 141.483 386.705 141.34C385.952 141.112 385.26 140.562 384.914 139.851C384.608 139.219 384.585 138.556 384.819 137.89C385.283 136.568 386.272 136.103 387.476 135.55Z"/>
	<path fill="#FEFEFE" d="M172.339 217.51C172.738 217.476 173.139 217.442 173.54 217.452C174.339 217.471 175.264 217.836 175.764 218.488C176.259 219.132 176.462 219.833 176.366 220.634C176.205 221.962 175.527 222.676 174.535 223.499C173.858 223.679 173.359 223.775 172.65 223.603C171.95 223.432 171.297 222.884 170.928 222.279C170.428 221.459 170.344 220.456 170.579 219.537C170.858 218.445 171.422 218.051 172.339 217.51Z"/>
	<path fill="#68BF76" d="M153.796 177.354C149.668 176.65 145.163 177.391 141.237 175.607C140.601 175.318 140.422 175.029 140.216 174.383C139.703 172.768 139.948 170.864 140.75 169.386C142.876 165.469 149.451 163.157 153.432 161.9C153.494 167.048 153.315 172.224 153.796 177.354Z"/>
	<defs>
		<linearGradient id="gradient_0" gradientUnits="userSpaceOnUse" x1="156.19795" y1="359.57108" x2="159.53235" y2="260.76263">
			<stop offset="0" stop-color="#155B4A"/>
			<stop offset="1" stop-color="#33AF75"/>
		</linearGradient>
	</defs>
	<path fill="url(#gradient_0)" d="M150.086 352.846C149.965 330.815 150.351 308.767 150.43 286.734C150.444 282.943 150.078 262.339 150.661 260.582C150.864 259.973 151.674 260.271 152.147 260.371C155.636 261.109 162.701 264.436 165.914 262.821C165.992 262.782 166.068 262.74 166.145 262.7L166.112 274.631C166.108 276.784 165.937 279.127 166.208 281.258C165.358 306.639 166.106 332.025 165.502 357.405L165.503 361.471C160.755 361.455 155.93 361.258 151.192 361.531L149.509 361.489L149.856 361.273C150.462 359.951 150.083 354.593 150.086 352.846Z"/>
	<path fill="#195444" d="M150.086 352.846C150.126 352.988 150.169 353.13 150.207 353.273C150.65 354.949 150.168 356.784 150.721 358.438C152.166 359.031 160.848 358.796 161.236 359.374C161.429 359.662 161.348 359.554 161.601 359.82C162.51 359.476 164.622 358.863 165.095 358.014C165.355 357.547 165.23 357.719 165.502 357.405L165.503 361.471C160.755 361.455 155.93 361.258 151.192 361.531L149.509 361.489L149.856 361.273C150.462 359.951 150.083 354.593 150.086 352.846Z"/>
	<path fill="#268E64" d="M89.2887 205.725C89.7202 205.859 90.1762 205.971 90.5862 206.161Q90.4873 210.339 90.4978 214.518C93.2467 215.416 101.155 215.639 104.237 215.305C104.225 217.971 104.13 220.666 104.267 223.329C103.505 247.667 103.95 272.118 104.056 296.468C104.079 301.874 103.974 307.286 103.919 312.693C103.892 315.376 103.582 318.393 104.035 321.024C104.155 323.793 104.385 327.118 103.991 329.851C103.987 335.908 103.725 342.089 104.028 348.131C103.95 352.62 103.687 357.191 103.951 361.672C97.8443 361.712 91.6609 361.933 85.5707 361.486C86.285 360.139 85.3974 341.109 85.5143 337.662C85.2674 334.24 85.4747 330.676 85.4856 327.232L85.7485 301.28L85.7977 240.904L85.7241 227.178C85.6988 224.182 85.2754 220.413 86.0077 217.496C86.4186 215.859 87.2704 215.039 88.6961 214.224C89.4329 211.616 89.2349 208.435 89.2887 205.725Z"/>
	<path fill="#195444" d="M85.5143 337.662C86.8015 342.078 85.4054 358.672 86.6016 360.552C89.6175 361.573 98.4031 361.067 101.622 360.398C102.642 359.695 103.104 358.282 103.299 357.113C103.743 354.452 103.458 351.362 103.463 348.642C103.471 344.558 103.597 340.481 103.581 336.393C103.574 334.655 103.287 331.896 103.834 330.279C103.883 330.135 103.939 329.994 103.991 329.851C103.987 335.908 103.725 342.089 104.028 348.131C103.95 352.62 103.687 357.191 103.951 361.672C97.8443 361.712 91.6609 361.933 85.5707 361.486C86.285 360.139 85.3974 341.109 85.5143 337.662Z"/>
	<defs>
		<linearGradient id="gradient_1" gradientUnits="userSpaceOnUse" x1="208.58804" y1="350.42102" x2="153.12256" y2="273.42728">
			<stop offset="0" stop-color="#155044"/>
			<stop offset="1" stop-color="#35B377"/>
		</linearGradient>
	</defs>
	<path fill="url(#gradient_1)" d="M166.145 262.7C166.248 262.041 166.186 261.296 166.704 260.859C167.023 261.342 167.005 261.746 167.063 262.307C167.591 262.738 167.7 262.675 168.379 262.697C173.397 262.865 178.43 262.478 183.454 262.515C186.366 262.537 189.318 262.495 192.226 262.643C193.316 262.699 194.427 263.008 195.503 263.006C196.064 275.31 195.571 287.74 195.573 300.06Q195.778 330.826 195.548 361.591C191.509 362.198 185.736 361.892 181.632 361.693C176.58 362.073 171.269 361.747 166.192 361.743C161.321 361.74 156 362.161 151.192 361.531C155.93 361.258 160.755 361.455 165.503 361.471L165.502 357.405C166.106 332.025 165.358 306.639 166.208 281.258C165.937 279.127 166.108 276.784 166.112 274.631L166.145 262.7Z"/>
	<path fill="#237759" d="M182.03 340.675C182.513 346.495 182.512 355.628 181.986 361.425C185.807 361.512 192.139 360.925 195.548 361.591C191.509 362.198 185.736 361.892 181.632 361.693L181.41 361.698C180.801 359.289 181.173 347.018 181.433 344.047L181.656 344.636C182.042 344.281 181.993 341.409 182.03 340.675Z"/>
	<path fill="#268E64" d="M181.433 344.047C181.552 340.301 181.337 336.501 181.304 332.75L181.28 312.757C181.286 309.184 181.153 305.607 181.406 302.04C181.449 304.069 181.589 305.993 181.93 307.996C182.194 302.286 181.735 296.531 182.064 290.827C182.441 292.332 182.163 294.545 182.168 296.116Q182.255 304.684 182.054 313.25Q181.88 326.962 182.03 340.675C181.993 341.409 182.042 344.281 181.656 344.636L181.433 344.047Z"/>
	<path fill="#488974" d="M166.208 281.258C166.483 281.587 166.604 281.821 166.649 282.253C166.893 284.55 166.717 286.993 166.709 289.303L166.73 301.712Q166.821 319.325 166.673 336.938C166.598 345.058 166.287 353.367 166.617 361.47C170.371 361.532 178.289 360.95 181.41 361.698L181.632 361.693C176.58 362.073 171.269 361.747 166.192 361.743C161.321 361.74 156 362.161 151.192 361.531C155.93 361.258 160.755 361.455 165.503 361.471L165.502 357.405C166.106 332.025 165.358 306.639 166.208 281.258Z"/>
	<path fill="#FEFEFE" d="M268.354 127.588C269.15 123.437 271.208 120.215 274.732 117.852C277.762 115.82 281.607 115.39 285.138 116.106C288.605 116.81 291.299 118.633 293.365 121.502C294.063 122.471 294.746 123.63 295.665 124.401C297.344 125.811 299.554 126.451 301.226 127.848C303.484 129.735 305.478 132.195 307.584 134.282L325.851 152.605C326.943 153.684 328.469 155.525 330.092 154.401C330.93 153.821 331.587 152.986 332.413 152.38C335.465 150.144 339.543 149.932 343.147 150.416C345.199 150.692 347.389 151.894 349.151 152.943C351.351 154.252 353.327 155.938 355.413 157.417C358.052 159.287 360.844 160.983 363.558 162.742L383.53 175.777C386.963 177.981 390.542 179.936 393.924 182.228C394.93 182.909 395.949 183.68 396.663 184.675C397.217 185.448 397.568 186.403 397.349 187.357C397.133 188.294 396.364 189.176 395.535 189.637C394.922 189.978 394.239 190.218 393.591 190.486C391.922 190.075 390.511 189.577 389 188.75C382.826 185.37 376.996 181.013 371.06 177.205C364.905 173.257 358.42 169.683 352.457 165.454C351.808 168.748 349.732 171.367 346.981 173.244Q346.408 173.632 345.8 173.961Q345.191 174.29 344.553 174.558Q343.915 174.826 343.254 175.03Q342.593 175.233 341.915 175.371Q341.237 175.508 340.549 175.578Q339.861 175.648 339.169 175.65Q338.477 175.652 337.788 175.586Q337.1 175.52 336.421 175.386C334.097 174.909 332.107 173.87 330.326 172.328C326.86 169.33 324.437 165.06 321.245 161.739C312.738 152.888 303.432 144.659 295.38 135.39C293.428 139.395 290.59 142.571 286.295 144.084C283.036 145.233 279.277 144.942 276.207 143.383C273.419 141.966 271.151 139.681 269.484 137.061C261.549 137.266 253.583 137.076 245.645 137.046Q231.802 136.99 217.958 137.077C214.718 138.951 206.244 148.539 203.02 151.797L191.643 163.404C190.024 165.06 188.208 166.608 186.685 168.349C184.661 170.661 183.987 173.558 182.512 176.179C179.341 181.812 172.959 184.877 166.613 183.082C162.598 181.946 159.526 177.816 158.336 177.527C157.081 177.222 155.209 177.575 153.796 177.354C153.315 172.224 153.494 167.048 153.432 161.9C154.869 161.38 156.348 161.462 157.857 161.433C159.272 158.283 161.644 155.563 164.943 154.309C168.515 152.95 172.715 153.275 176.145 154.897C178.656 156.085 180.341 157.867 182.069 159.989Q190.822 151.409 199.464 142.718C202.764 139.407 210.84 130.465 214.186 128.681C215.598 127.927 217.523 127.721 219.11 127.614C224.955 127.219 231.034 127.549 236.906 127.563L267.299 127.564Q267.827 127.566 268.354 127.588ZM338.8 156.009C335.918 157.255 334.381 158.933 333.226 161.872C332.944 162.589 332.713 163.318 332.51 164.062C333.784 166.798 334.824 168.967 337.575 170.505C338.953 170.521 340.335 170.563 341.712 170.533C344.114 169.185 346.173 167.688 346.951 164.898C347.49 162.97 347.312 160.777 346.301 159.03Q346.131 158.741 345.932 158.471Q345.733 158.201 345.507 157.953Q345.281 157.705 345.03 157.483Q344.779 157.26 344.506 157.065Q344.233 156.87 343.941 156.705Q343.65 156.539 343.342 156.405Q343.034 156.272 342.715 156.171Q342.395 156.07 342.066 156.003C341.021 155.795 339.857 155.939 338.8 156.009Z"/>
	<path fill="#FEFEFE" d="M210.529 182.926C210.156 178.333 210.469 173.458 210.46 168.828C210.45 163.737 210.053 158.308 210.579 153.263C210.721 151.897 210.998 150.322 211.728 149.14C212.398 148.056 213.895 147.676 215.079 147.451C219.07 146.693 226.569 147.245 230.992 147.238L244.132 147.23C246.342 147.233 248.688 147.081 250.886 147.295C252.461 147.447 254.315 148.173 255.633 149.046C256.021 149.303 256.231 149.48 256.704 149.571C256.797 149.588 256.893 149.584 256.988 149.591C258.776 149.481 260.324 149.638 262.09 149.965L262.018 300.153L262.037 341.943L262.104 353.812C262.122 356.34 262.31 359.041 261.95 361.543C265.695 361.531 269.459 361.434 273.202 361.512C272.976 359.103 272.928 356.624 273.22 354.221C273.011 347.533 273.155 282.829 273.742 281.286C274.572 279.101 294.935 278.278 298.346 277.813C300.182 277.562 301.993 277.175 303.684 276.402C303.772 276.362 303.859 276.319 303.947 276.278C304.506 275.636 304.69 274.85 304.947 274.056C304.629 271.854 305.253 269.068 305.519 266.849L305.612 267.059C305.664 267.176 305.719 267.291 305.77 267.408C305.932 267.779 306.082 268.273 306.335 268.59C308.088 270.778 316.004 269.611 318.706 269.912L319.051 269.952C318.992 267.682 318.936 265.424 319.022 263.153C319.003 253.089 319.379 242.858 318.659 232.817C315.883 236.379 311.636 239.299 308.254 242.3C303.781 246.269 299.481 250.586 294.797 254.297C293.948 254.97 293.057 255.486 292.094 255.978C287.923 254.938 277.668 252.523 274.613 250.055C274.314 249.504 274.116 248.912 274.278 248.278C274.433 247.67 274.657 247.331 275.265 247.092C278.296 245.897 287.771 251.553 290.227 251.275C290.89 251.2 291.713 250.663 292.243 250.293C294.913 248.43 297.291 245.834 299.673 243.611C302.822 240.671 315.17 229.131 318.381 227.999C319.505 227.603 320.712 228.049 321.663 228.676C323.205 229.694 323.69 230.916 323.999 232.696C324.787 237.234 324.3 247.318 324.321 252.335L324.374 298.659L324.398 342.377L324.402 354.26C324.402 356.658 324.571 359.196 324.18 361.565Q329.98 361.604 335.778 361.449C336.599 356.274 336.393 351.267 336.309 346.055C335.883 339.715 336.279 332.847 336.273 326.447L336.285 285.118L336.304 247.1C336.308 240.108 335.972 232.892 336.51 225.93C336.532 217.617 336.855 209.131 336.392 200.843C336.198 197.373 335.492 193.934 335.238 190.461C335.705 189.583 336.303 188.7 336.933 187.928C338.47 186.045 339.711 185.243 342.129 185.028C344.367 184.83 350.335 184.13 352.092 185.811C352.98 186.661 352.396 217.35 352.386 220.936L352.29 313.494L352.332 344.319C352.339 350.102 352.57 355.996 352.212 361.764Q356.878 361.697 361.542 361.535C361.113 358.345 361.367 354.939 361.393 351.722L361.449 336.053L361.47 280.258L361.425 229.141L361.326 213.689C361.302 210.208 361.091 206.569 361.567 203.116C363.209 203.025 364.865 202.59 366.18 203.731C366.708 204.837 366.564 206.095 366.556 207.297C366.695 207.719 366.613 207.558 366.856 207.94C367.544 209.028 376.622 212.857 378.366 213.237C380.375 213.675 382.562 213.638 384.607 213.618C386.181 213.602 387.949 213.621 389.433 213.028C393.45 211.423 394.885 203.911 398.897 201.484C399.034 201.402 399.174 201.326 399.312 201.247C400.062 201.013 400.267 200.859 401.046 201.201C401.109 201.229 401.554 201.502 401.602 201.529C403.817 202.806 409.793 202.123 412.58 202.367C412.55 194.326 412.972 186.016 412.42 178.002C412.206 174.905 410.524 171.942 410.547 168.877C410.558 167.36 411.189 165.68 412.256 164.591Q412.441 164.405 412.643 164.239Q412.846 164.072 413.064 163.927Q413.283 163.782 413.514 163.66Q413.746 163.537 413.989 163.438Q414.232 163.34 414.483 163.266Q414.735 163.192 414.993 163.144Q415.25 163.096 415.512 163.074Q415.773 163.053 416.035 163.057C417.969 163.09 419.401 164.035 420.647 165.455C420.736 165.557 420.822 165.661 420.91 165.764C422.572 173.566 419.028 173.006 418.774 179.303C418.558 184.643 418.705 190.036 418.702 195.383L418.692 224.488L418.716 321.339L418.74 348.093C418.743 352.403 419.24 357.294 418.494 361.511C421.844 361.431 425.023 361.973 427.532 364.424C429.436 366.283 430.105 368.715 430.075 371.318C430.042 374.274 429.042 376.885 426.912 378.98C424.635 381.221 421.991 381.874 418.92 382.091C413.729 382.458 408.38 382.215 403.171 382.218L374.626 382.231L285.263 382.226L149.123 382.228L103.922 382.227C95.8598 382.233 87.7393 382.446 79.6827 382.211C75.7306 382.096 71.9159 381.499 69.0768 378.445Q68.7138 378.049 68.3912 377.62Q68.0687 377.191 67.7898 376.732Q67.511 376.274 67.2784 375.79Q67.0458 375.306 66.8618 374.802Q66.6778 374.297 66.5442 373.777Q66.4105 373.258 66.3284 372.727Q66.2464 372.196 66.2168 371.66Q66.1871 371.124 66.2102 370.588C66.3148 368.257 67.0379 365.63 68.8456 364.035C73.1511 360.238 80.2152 361.638 85.5707 361.486C91.6609 361.933 97.8443 361.712 103.951 361.672C103.687 357.191 103.95 352.62 104.028 348.131C103.725 342.089 103.987 335.908 103.991 329.851C104.385 327.118 104.155 323.793 104.035 321.024C103.582 318.393 103.892 315.376 103.919 312.693C103.974 307.286 104.079 301.874 104.056 296.468C103.95 272.118 103.505 247.667 104.267 223.329C104.13 220.666 104.225 217.971 104.237 215.305C108.401 216.027 122.464 217.143 126.221 215.979C126.677 214.794 128.385 213.164 129.35 212.295C131.307 210.533 133.124 209.908 135.71 210.092C135.754 207.742 134.885 201.708 136.725 200.024C137.16 199.625 137.896 199.516 138.464 199.618C139.137 199.74 139.433 199.97 139.876 200.465C140.692 203.761 140.268 207.973 140.273 211.379L140.273 230.285L140.257 303.596L140.455 344.174C140.462 349.006 140.942 357.2 140.297 361.536L149.509 361.489L151.192 361.531C156 362.161 161.321 361.74 166.192 361.743C171.269 361.747 176.58 362.073 181.632 361.693C185.736 361.892 191.509 362.198 195.548 361.591Q195.778 330.826 195.573 300.06C195.571 287.74 196.064 275.31 195.503 263.006C195.489 258.436 195.589 253.844 195.218 249.287C188.919 248.806 177.159 250.097 171.962 247.211C168.745 245.424 165.826 242.619 162.962 240.307C160.02 237.932 156.24 235.74 153.744 232.943C153.076 232.194 152.535 231.289 152.527 230.262C152.523 229.66 152.828 228.899 153.28 228.509C153.733 228.119 154.137 228.002 154.715 228.044C156.984 229.195 158.767 231.201 160.692 232.836C162.561 234.423 164.621 235.803 166.536 237.341C168.731 239.104 170.931 241.195 173.307 242.697Q174 243.139 174.758 243.458Q175.515 243.777 176.316 243.963C181.772 245.24 188.876 243.665 194.66 244.811C196.581 245.192 199.045 246.247 199.957 248.137C200.637 249.548 200.616 252.414 200.659 253.992C200.856 261.261 200.677 268.571 200.678 275.844L200.665 323.875L200.76 347.923C200.785 352.263 201.299 357.327 200.502 361.572L210.2 361.519C209.543 355.899 209.989 348.695 209.97 342.913L210.234 298.469L210.443 228.136C210.438 213.076 210.192 197.981 210.529 182.926ZM72.8958 367.217C71.8798 368.192 71.2761 369.328 71.208 370.761C71.1206 372.6 71.8916 374.104 72.882 375.587C74.2518 376.222 75.3055 376.537 76.8009 376.638C76.932 376.535 77.052 376.284 77.1428 376.14C76.663 374.02 74.7609 371.838 73.7837 369.846C73.4072 369.079 73.3083 368.332 73.0237 367.547C72.9834 367.436 72.9385 367.327 72.8958 367.217Z"/>
	<defs>
		<linearGradient id="gradient_2" gradientUnits="userSpaceOnUse" x1="308.04797" y1="360.32037" x2="316.00735" y2="270.05225">
			<stop offset="0" stop-color="#165745"/>
			<stop offset="1" stop-color="#2FA070"/>
		</linearGradient>
	</defs>
	<path fill="url(#gradient_2)" d="M319.022 263.153C319.45 266.782 319.256 270.573 319.261 274.227L319.292 292.665L319.408 358.401L319.442 361.59C314.889 362.268 309.247 361.775 304.599 361.767C296.886 361.754 289.052 362.019 281.359 361.687C283.846 361.013 287.325 361.444 289.902 361.48C294.775 361.548 299.798 361.726 304.657 361.407C304.588 360.136 304.573 358.856 304.533 357.583C304.864 355.189 304.721 352.664 304.729 350.25L304.749 337.904C304.723 323.302 304.451 308.653 305.119 294.064C305.156 289.667 305.256 285.246 305.11 280.852C305.056 279.226 305.201 277.456 303.947 276.278C304.506 275.636 304.69 274.85 304.947 274.056C304.629 271.854 305.253 269.068 305.519 266.849L305.612 267.059C305.664 267.176 305.719 267.291 305.77 267.408C305.932 267.779 306.082 268.273 306.335 268.59C308.088 270.778 316.004 269.611 318.706 269.912L319.051 269.952C318.992 267.682 318.936 265.424 319.022 263.153Z"/>
	<path fill="#4E9D7E" d="M304.947 274.056C306.45 277.177 306.034 292.588 305.736 296.859C305.349 295.986 305.378 294.983 305.119 294.064C305.156 289.667 305.256 285.246 305.11 280.852C305.056 279.226 305.201 277.456 303.947 276.278C304.506 275.636 304.69 274.85 304.947 274.056Z"/>
	<path fill="#195444" d="M305.712 354.885C306.201 356.512 306.137 358.207 306.163 359.89L306.548 360.04C306.622 360.069 306.694 360.108 306.77 360.131C309.182 360.849 313.846 360.631 316.505 360.615C317.31 359.433 317.494 359.042 318.974 358.619C319.024 358.076 319.046 357.622 318.992 357.08C318.949 356.647 318.928 356.524 319.114 356.148C319.151 356.924 319.159 357.657 319.408 358.401L319.442 361.59C314.911 361.236 310.157 361.559 305.596 361.499C305.741 359.307 305.699 357.082 305.712 354.885Z"/>
	<path fill="#488974" d="M305.119 294.064C305.378 294.983 305.349 295.986 305.736 296.859C305.98 309.923 305.742 323.026 305.66 336.093C305.621 342.257 305.185 348.757 305.712 354.885C305.699 357.082 305.741 359.307 305.596 361.499C310.157 361.559 314.911 361.236 319.442 361.59C314.889 362.268 309.247 361.775 304.599 361.767C296.886 361.754 289.052 362.019 281.359 361.687C283.846 361.013 287.325 361.444 289.902 361.48C294.775 361.548 299.798 361.726 304.657 361.407C304.588 360.136 304.573 358.856 304.533 357.583C304.864 355.189 304.721 352.664 304.729 350.25L304.749 337.904C304.723 323.302 304.451 308.653 305.119 294.064Z"/>
	<path fill="#268E64" d="M135.71 210.092C136.099 217.034 135.975 224.014 136.049 230.968Q136.351 250.97 136.297 270.974L136.462 318.901C136.489 327.861 136.651 336.847 136.465 345.805C136.497 351.082 136.391 356.398 136.625 361.668C135.305 361.68 133.952 361.752 132.635 361.702C130.13 361.819 127.614 361.757 125.108 361.684C125.661 358.282 125.284 354.27 125.228 350.814C125.453 344.938 125.228 339.024 125.3 333.141C125.082 328.566 125.246 323.923 125.238 319.337Q125.176 307.485 125.271 295.633C125.397 296.526 125.56 297.391 125.77 298.268C125.966 297.163 126.081 296.043 126.217 294.929C126.42 291.695 126.261 288.373 126.324 285.126C126.398 281.35 126.632 277.578 126.664 273.801C126.719 267.451 126.564 261.095 126.562 254.744C126.559 241.855 127.04 228.848 126.221 215.979C126.677 214.794 128.385 213.164 129.35 212.295C131.307 210.533 133.124 209.908 135.71 210.092Z"/>
	<path fill="#4E9D7E" d="M125.271 295.633C125.397 296.526 125.56 297.391 125.77 298.268C125.966 297.163 126.081 296.043 126.217 294.929C126.308 308.988 125.928 323.037 125.932 337.088L125.756 337.251C125.465 338.293 125.639 339.54 125.68 340.612L125.708 339.976L125.63 340.106C125.698 337.932 125.637 335.537 125.335 333.379C125.324 333.3 125.312 333.22 125.3 333.141C125.082 328.566 125.246 323.923 125.238 319.337Q125.176 307.485 125.271 295.633Z"/>
	<path fill="#195444" d="M125.3 333.141C125.312 333.22 125.324 333.3 125.335 333.379C125.637 335.537 125.698 337.932 125.63 340.106L125.708 339.976L125.68 340.612C125.639 339.54 125.465 338.293 125.756 337.251L125.932 337.088C125.967 339.493 125.729 342.295 126.241 344.637C126.263 344.099 126.269 340.254 126.461 340.065C126.508 344.873 126.662 349.697 126.667 354.502C126.669 356.632 126.415 358.749 126.613 360.878C129.004 360.895 133.139 361.364 135.329 360.709C137.385 357.85 134.497 341.693 136.077 338.91C136.219 341.178 136.144 343.568 136.465 345.805C136.497 351.082 136.391 356.398 136.625 361.668C135.305 361.68 133.952 361.752 132.635 361.702C130.13 361.819 127.614 361.757 125.108 361.684C125.661 358.282 125.284 354.27 125.228 350.814C125.453 344.938 125.228 339.024 125.3 333.141Z"/>
	<path fill="#488974" d="M125.3 333.141C125.312 333.22 125.324 333.3 125.335 333.379C125.637 335.537 125.698 337.932 125.63 340.106L125.708 339.976L125.68 340.612C125.639 339.54 125.465 338.293 125.756 337.251L125.932 337.088C125.967 339.493 125.729 342.295 126.241 344.637C126.304 350.149 126.664 356.012 126.026 361.483C128.189 361.494 130.504 361.341 132.635 361.702C130.13 361.819 127.614 361.757 125.108 361.684C125.661 358.282 125.284 354.27 125.228 350.814C125.453 344.938 125.228 339.024 125.3 333.141Z"/>
	<defs>
		<linearGradient id="gradient_3" gradientUnits="userSpaceOnUse" x1="282.90622" y1="359.42233" x2="295.80139" y2="275.20636">
			<stop offset="0" stop-color="#165B49"/>
			<stop offset="1" stop-color="#30A473"/>
		</linearGradient>
	</defs>
	<path fill="url(#gradient_3)" d="M273.22 354.221C273.011 347.533 273.155 282.829 273.742 281.286C274.572 279.101 294.935 278.278 298.346 277.813C300.182 277.562 301.993 277.175 303.684 276.402C303.772 276.362 303.859 276.319 303.947 276.278C305.201 277.456 305.056 279.226 305.11 280.852C305.256 285.246 305.156 289.667 305.119 294.064C304.451 308.653 304.723 323.302 304.749 337.904L304.729 350.25C304.721 352.664 304.864 355.189 304.533 357.583C304.573 358.856 304.588 360.136 304.657 361.407C299.798 361.726 294.775 361.548 289.902 361.48C287.325 361.444 283.846 361.013 281.359 361.687C278.625 361.715 275.932 361.686 273.202 361.512C272.976 359.103 272.928 356.624 273.22 354.221Z"/>
	<path fill="#195444" d="M273.22 354.221C273.348 355.47 273.348 356.897 273.848 358.056C275.667 358.698 284.109 357.751 285.935 356.749C286.362 356.515 286.499 356.277 286.604 355.813C286.831 354.807 286.58 353.752 286.819 352.71L286.61 353.516L286.963 353.281C287.184 355.675 286.796 358.097 287.136 360.479L287.382 360.675C288.27 358.657 287.639 356.319 288.194 354.227L288.42 356.694C290.688 358.4 294.577 359.195 297.384 358.772C298.007 358.678 298.606 358.45 299.237 358.394C300.776 358.256 302.987 358.772 304.151 357.552C304.282 356.896 304.275 356.345 304.24 355.682L304.401 355.547C304.428 356.225 304.43 356.911 304.533 357.583C304.573 358.856 304.588 360.136 304.657 361.407C299.798 361.726 294.775 361.548 289.902 361.48C287.325 361.444 283.846 361.013 281.359 361.687C278.625 361.715 275.932 361.686 273.202 361.512C272.976 359.103 272.928 356.624 273.22 354.221Z"/>
	<defs>
		<linearGradient id="gradient_4" gradientUnits="userSpaceOnUse" x1="153.27631" y1="325.05212" x2="74.345787" y2="246.5854">
			<stop offset="0" stop-color="#166E50"/>
			<stop offset="1" stop-color="#4DC383"/>
		</linearGradient>
	</defs>
	<path fill="url(#gradient_4)" d="M104.237 215.305C108.401 216.027 122.464 217.143 126.221 215.979C127.04 228.848 126.559 241.855 126.562 254.744C126.564 261.095 126.719 267.451 126.664 273.801C126.632 277.578 126.398 281.35 126.324 285.126C126.261 288.373 126.42 291.695 126.217 294.929C126.081 296.043 125.966 297.163 125.77 298.268C125.56 297.391 125.397 296.526 125.271 295.633Q125.176 307.485 125.238 319.337C125.246 323.923 125.082 328.566 125.3 333.141C125.228 339.024 125.453 344.938 125.228 350.814C125.284 354.27 125.661 358.282 125.108 361.684L104.754 361.702L103.951 361.672C103.687 357.191 103.95 352.62 104.028 348.131C103.725 342.089 103.987 335.908 103.991 329.851C104.385 327.118 104.155 323.793 104.035 321.024C103.582 318.393 103.892 315.376 103.919 312.693C103.974 307.286 104.079 301.874 104.056 296.468C103.95 272.118 103.505 247.667 104.267 223.329C104.13 220.666 104.225 217.971 104.237 215.305Z"/>
	<path fill="#A4C9C1" d="M104.028 348.131C104.843 343.742 103.581 338.959 104.788 334.657C104.799 340.81 104.649 347.004 104.81 353.153Q104.756 357.427 104.754 361.702L103.951 361.672C103.687 357.191 103.95 352.62 104.028 348.131Z"/>
	<path fill="#68C18C" d="M104.035 321.024C104.468 315.862 104.221 310.512 104.236 305.329L104.311 276.433C104.321 272.805 103.93 265.549 104.45 262.371Q104.672 274.966 104.63 287.562L104.623 287.463L104.721 287.558Q104.736 281.163 104.98 274.772C105.029 273.151 104.846 271.17 105.194 269.606L105.019 314.095L104.921 328.305C104.901 330.356 105.092 332.644 104.788 334.657C103.581 338.959 104.843 343.742 104.028 348.131C103.725 342.089 103.987 335.908 103.991 329.851C104.385 327.118 104.155 323.793 104.035 321.024Z"/>
	<path fill="#195444" d="M104.81 353.153C105.246 351.909 105.065 350.452 105.157 349.137C105.186 349.254 105.272 349.582 105.279 349.689C105.412 351.6 104.87 356.106 105.363 357.597C107.305 356.101 108.826 358.49 110.933 357.951C114.9 356.936 118.827 356.94 122.694 355.396C125.518 354.269 124.02 353.102 125.091 351.025C125.13 350.951 125.182 350.885 125.228 350.814C125.284 354.27 125.661 358.282 125.108 361.684L104.754 361.702Q104.756 357.427 104.81 353.153Z"/>
	<path fill="#68BF76" d="M104.237 215.305C108.401 216.027 122.464 217.143 126.221 215.979C127.04 228.848 126.559 241.855 126.562 254.744C126.564 261.095 126.719 267.451 126.664 273.801C126.632 277.578 126.398 281.35 126.324 285.126C126.261 288.373 126.42 291.695 126.217 294.929C126.081 296.043 125.966 297.163 125.77 298.268C125.56 297.391 125.397 296.526 125.271 295.633C124.818 289.935 125.246 282.24 125.283 276.314L125.245 249.228C125.267 240.69 125.479 232.156 124.919 223.638C124.774 221.444 125.299 219.231 125.065 217.056C118.417 216.819 111.645 216.912 105.078 215.915C104.149 218.191 104.788 220.744 104.314 223.114C104.299 223.186 104.282 223.257 104.267 223.329C104.13 220.666 104.225 217.971 104.237 215.305Z"/>
	<defs>
		<linearGradient id="gradient_5" gradientUnits="userSpaceOnUse" x1="276.14694" y1="435.4465" x2="199.60506" y2="248.29344">
			<stop offset="0" stop-color="#141821"/>
			<stop offset="1" stop-color="#353B42"/>
		</linearGradient>
	</defs>
	<path fill="url(#gradient_5)" d="M336.51 225.93C336.532 225.831 336.556 225.732 336.577 225.633C336.991 223.665 336.686 220.98 336.68 218.95C336.668 214.95 336.514 197.296 337.466 194.507C338.038 192.829 339.29 191.36 340.759 190.386C342.396 189.3 344.313 188.798 346.249 189.213C347.219 189.42 347.916 189.731 348.603 190.444C349.123 193.693 348.826 197.328 348.836 200.628L348.94 217.831L348.985 320.434C348.981 334.524 348.59 348.713 348.927 362.791C348.95 363.736 348.946 364.814 349.354 365.677C351.993 366.946 361.759 366.264 365.073 366.253L402.25 366.248C408.153 366.248 414.662 365.741 420.492 366.346C421.876 366.489 422.881 366.825 424.001 367.66C424.677 369.008 425.062 370.186 425.362 371.668C424.743 373.644 424.128 375.332 422.171 376.366C421.192 376.883 419.947 376.953 418.855 377.004C410.356 377.405 401.63 376.979 393.109 376.962L341.505 376.952L145.943 376.97L97.9397 377.001C93.2453 377.003 80.8095 377.548 76.8009 376.638C76.932 376.535 77.052 376.284 77.1428 376.14C76.663 374.02 74.7609 371.838 73.7837 369.846C73.4072 369.079 73.3083 368.332 73.0237 367.547C72.9834 367.436 72.9385 367.327 72.8958 367.217C74.0771 366.409 75.3034 366.365 76.6917 366.305C84.5601 365.964 92.5566 366.268 100.441 366.265L147.201 366.246L273.209 366.233C294.488 366.232 315.819 366.567 337.092 366.197C337.182 361.575 336.798 356.955 336.721 352.334C336.597 344.878 336.685 337.408 336.628 329.949C336.515 335.29 336.698 340.733 336.309 346.055C335.883 339.715 336.279 332.847 336.273 326.447L336.285 285.118L336.304 247.1C336.308 240.108 335.972 232.892 336.51 225.93Z"/>
	<path fill="#237759" d="M399.312 201.247C400.062 201.013 400.267 200.859 401.046 201.201C401.109 201.229 401.554 201.502 401.602 201.529C403.817 202.806 409.793 202.123 412.58 202.367C412.774 216.034 412.548 229.722 412.568 243.394L412.745 322.221C412.749 335.352 412.543 348.524 412.774 361.649C408.454 361.736 404.12 361.525 399.808 361.65L366.416 361.744C366.092 349.392 366.336 336.975 366.356 324.617L366.384 272.264C366.496 250.623 365.987 228.925 366.556 207.297C366.695 207.719 366.613 207.558 366.856 207.94C367.544 209.028 376.622 212.857 378.366 213.237C380.375 213.675 382.562 213.638 384.607 213.618C386.181 213.602 387.949 213.621 389.433 213.028C393.45 211.423 394.885 203.911 398.897 201.484C399.034 201.402 399.174 201.326 399.312 201.247Z"/>
	<defs>
		<linearGradient id="gradient_6" gradientUnits="userSpaceOnUse" x1="258.40222" y1="352.14746" x2="207.62119" y2="178.21414">
			<stop offset="0" stop-color="#106350"/>
			<stop offset="1" stop-color="#63CD7E"/>
		</linearGradient>
	</defs>
	<path fill="url(#gradient_6)" d="M210.529 182.926C210.156 178.333 210.469 173.458 210.46 168.828C210.45 163.737 210.053 158.308 210.579 153.263C210.721 151.897 210.998 150.322 211.728 149.14C212.398 148.056 213.895 147.676 215.079 147.451C219.07 146.693 226.569 147.245 230.992 147.238L244.132 147.23C246.342 147.233 248.688 147.081 250.886 147.295C252.461 147.447 254.315 148.173 255.633 149.046C256.021 149.303 256.231 149.48 256.704 149.571C256.797 149.588 256.893 149.584 256.988 149.591L256.47 149.908C256.209 153.504 256.467 157.264 256.488 160.875L256.574 181.535C256.585 184.59 256.982 188.142 256.535 191.125C256.855 197.573 256.692 204.096 256.699 210.555L256.727 243.836L257.033 317.325C257.065 332.083 256.816 346.874 257.038 361.626Q250.47 361.788 243.9 361.725L243.235 361.723C236.092 361.716 228.867 361.967 221.736 361.648C217.984 361.907 213.947 361.81 210.2 361.519C209.543 355.899 209.989 348.695 209.97 342.913L210.234 298.469L210.443 228.136C210.438 213.076 210.192 197.981 210.529 182.926Z"/>
	<path fill="#195444" d="M221.758 355.637C222.289 352.931 221.935 350.069 222.153 347.321C222.974 347.91 221.511 355.849 222.673 357.315L223.566 357.396C224.13 357.912 224.719 358.301 225.453 358.531C229.456 359.786 236.396 358.951 240.206 357.076C244.484 354.97 241.897 354.007 243.107 351.027C243.134 350.96 243.175 350.9 243.209 350.836Q243.279 356.279 243.235 361.723C236.092 361.716 228.867 361.967 221.736 361.648L221.658 360.975L221.758 355.637Z"/>
	<path fill="#68BF76" d="M210.529 182.926C210.156 178.333 210.469 173.458 210.46 168.828C210.45 163.737 210.053 158.308 210.579 153.263C210.721 151.897 210.998 150.322 211.728 149.14C212.398 148.056 213.895 147.676 215.079 147.451C219.07 146.693 226.569 147.245 230.992 147.238L244.132 147.23C246.342 147.233 248.688 147.081 250.886 147.295C252.461 147.447 254.315 148.173 255.633 149.046C256.021 149.303 256.231 149.48 256.704 149.571C256.797 149.588 256.893 149.584 256.988 149.591L256.47 149.908C256.209 153.504 256.467 157.264 256.488 160.875L256.574 181.535C256.585 184.59 256.982 188.142 256.535 191.125L256.477 191.355C256.287 192.127 256.223 192.797 256.235 193.59C255.83 193.577 255.799 193.667 255.501 193.343C254.958 192.752 254.757 191.575 254.568 190.805C254.19 191.113 254.352 190.933 254.085 191.347L253.779 191.191C251.42 190.015 249.042 189.628 246.588 188.818C245.815 188.563 245.347 187.331 244.761 187.454L244.389 187.857L244.294 186.963L244.155 186.89C243.826 188.921 244.165 190.98 243.955 193.028L243.962 205.313C243.956 207.127 244.157 209.417 243.817 211.186C243.681 217.663 243.755 224.142 243.63 230.619C243.553 230.462 243.46 230.201 243.342 230.076L243.186 181.576C243.171 181.498 243.154 181.421 243.14 181.343C242.524 177.918 243.967 170.846 241.954 168.334L241.837 168.582C241.543 169.199 241.503 169.328 240.842 169.552C239.803 169.905 238.663 169.919 237.616 170.251C234.075 171.375 226.232 176.232 224.037 179.205C223.636 178.813 223.524 178.462 223.313 177.956L222.862 178.048C221.848 180.663 222.353 188.273 221.963 191.833C221.686 189.971 221.832 187.877 221.803 185.987Q221.685 179.437 221.687 172.887C221.685 171.35 222.004 168.757 221.5 167.354C220.778 169.578 221.399 186.247 220.965 190.609L220.932 190.911L220.666 190.84C220.517 190.444 220.41 190.242 220.154 189.887C219.421 189.719 218.949 190.04 218.306 190.351C217.874 190.56 217.599 190.449 217.144 190.403C215.245 190.212 214.129 190.167 212.598 191.434C212.525 191.494 212.454 191.555 212.382 191.616L211.128 190.236L210.917 190.425L210.933 190.324L210.787 190.331C210.833 187.946 210.867 185.543 210.563 183.171L210.529 182.926Z"/>
	<path fill="#68C18C" d="M243.186 181.576C243.232 177.603 242.765 154.502 243.375 152.661C244.702 155.85 243.383 186.092 243.955 193.028L243.962 205.313C243.956 207.127 244.157 209.417 243.817 211.186C243.681 217.663 243.755 224.142 243.63 230.619C243.553 230.462 243.46 230.201 243.342 230.076L243.186 181.576Z"/>
	<defs>
		<linearGradient id="gradient_7" gradientUnits="userSpaceOnUse" x1="217.27795" y1="361.06186" x2="213.71544" y2="189.87038">
			<stop offset="0" stop-color="#0F5C4D"/>
			<stop offset="1" stop-color="#4AC279"/>
		</linearGradient>
	</defs>
	<path fill="url(#gradient_7)" d="M220.932 190.911L220.965 190.609C221.399 186.247 220.778 169.578 221.5 167.354C222.004 168.757 221.685 171.35 221.687 172.887Q221.686 179.438 221.803 185.987C221.832 187.877 221.686 189.971 221.963 191.833C222.106 201.143 222.353 210.424 222.24 219.739C222.161 226.294 221.733 232.838 221.697 239.396L221.693 312.07L221.677 340.269C221.673 345.364 221.475 350.554 221.758 355.637L221.658 360.975L221.736 361.648C217.984 361.907 213.947 361.81 210.2 361.519C209.543 355.899 209.989 348.695 209.97 342.913L210.234 298.469L210.443 228.136C210.438 213.076 210.192 197.981 210.529 182.926L210.563 183.171C210.867 185.543 210.833 187.946 210.787 190.331L210.933 190.324L210.917 190.425L211.128 190.236L212.382 191.616C212.454 191.555 212.525 191.494 212.598 191.434C214.129 190.167 215.245 190.212 217.144 190.403C217.599 190.449 217.874 190.56 218.306 190.351C218.949 190.04 219.421 189.719 220.154 189.887C220.41 190.242 220.517 190.444 220.666 190.84L220.932 190.911Z"/>
	<path fill="#68C18C" d="M220.932 190.911L220.965 190.609C221.399 186.247 220.778 169.578 221.5 167.354C222.004 168.757 221.685 171.35 221.687 172.887Q221.686 179.438 221.803 185.987C221.832 187.877 221.686 189.971 221.963 191.833C222.106 201.143 222.353 210.424 222.24 219.739C222.161 226.294 221.733 232.838 221.697 239.396L221.693 312.07L221.677 340.269C221.673 345.364 221.475 350.554 221.758 355.637L221.658 360.975C221.334 360.347 221.347 359.825 221.335 359.133C220.964 338.278 221.312 317.353 221.317 296.491L220.932 190.911Z"/>
	<defs>
		<linearGradient id="gradient_8" gradientUnits="userSpaceOnUse" x1="219.62617" y1="350.80841" x2="279.59042" y2="200.77817">
			<stop offset="0" stop-color="#0B5949"/>
			<stop offset="1" stop-color="#59BD78"/>
		</linearGradient>
	</defs>
	<path fill="url(#gradient_8)" d="M243.955 193.028C244.165 190.98 243.826 188.921 244.155 186.89L244.294 186.963L244.389 187.857L244.761 187.454C245.347 187.331 245.815 188.563 246.588 188.818C249.042 189.628 251.42 190.015 253.779 191.191L254.085 191.347C254.352 190.933 254.19 191.113 254.568 190.805C254.757 191.575 254.958 192.752 255.501 193.343C255.799 193.667 255.83 193.577 256.235 193.59C256.223 192.797 256.287 192.127 256.477 191.355L256.535 191.125C256.855 197.573 256.692 204.096 256.699 210.555L256.727 243.836L257.033 317.325C257.065 332.083 256.816 346.874 257.038 361.626Q250.47 361.788 243.9 361.725L243.235 361.723Q243.279 356.279 243.209 350.836C243.667 340.145 243.275 329.264 243.258 318.555L243.234 262.012L243.199 240.333C243.195 237.065 242.839 233.285 243.342 230.076C243.46 230.201 243.553 230.462 243.63 230.619C243.755 224.142 243.681 217.663 243.817 211.186C244.157 209.417 243.956 207.127 243.962 205.313L243.955 193.028Z"/>
	<path fill="#68BF76" d="M243.817 211.186C244.19 220.488 243.992 229.862 244.009 239.174L243.824 302.214L243.94 342.603C243.952 348.887 244.434 355.474 243.9 361.725L243.235 361.723Q243.279 356.279 243.209 350.836C243.667 340.145 243.275 329.264 243.258 318.555L243.234 262.012L243.199 240.333C243.195 237.065 242.839 233.285 243.342 230.076C243.46 230.201 243.553 230.462 243.63 230.619C243.755 224.142 243.681 217.663 243.817 211.186Z"/>
</svg>
